<svg width="39" height="39" viewBox="0 0 39 39" fill="none" xmlns="http://www.w3.org/2000/svg">
<path d="M11.0435 14.6188L11.123 14.9167L10.7655 15.1551C10.4874 15.3537 10.3285 15.5921 10.3285 15.8701C10.3285 16.1085 10.4079 16.3667 10.547 16.8037L12.0764 21.6104L13.4668 17.8167L13.0099 16.5852C12.7319 15.8105 12.4339 15.314 11.9771 14.9167L12.0565 14.6188C13.9037 14.738 15.5722 14.738 17.4194 14.6188L17.4989 14.9167L17.0817 15.1749C16.8037 15.3537 16.6845 15.5325 16.6845 15.8304C16.6845 16.0688 16.7639 16.3468 16.903 16.7639L18.492 21.6104L19.7632 18.2536C19.9221 17.8167 19.9817 17.4989 19.9817 17.1215C19.9817 16.3866 19.5447 15.6914 18.6112 14.9167L18.6906 14.6188C20.0214 14.7181 21.3522 14.7181 22.683 14.6188L22.7624 14.9167C21.8885 15.7112 21.3522 16.5256 20.7563 18.0749L18.0947 25.0267C17.4393 24.987 16.7639 24.987 16.1085 25.0267L13.9037 19.0481L11.7189 25.0267C11.0435 24.987 10.3285 24.987 9.65317 25.0267L6.45531 16.6646C6.0382 15.5921 5.81971 15.314 5.14438 14.9167L5.22383 14.6188C7.19022 14.738 9.07716 14.738 11.0435 14.6188ZM27.7082 25.3445C24.2918 25.3445 22.1268 23.1597 22.1268 19.8426C22.1268 16.5256 24.4309 14.3407 27.7678 14.3407C30.8663 14.3407 33.0115 16.1482 33.3293 19.1474H26.1589C26.2781 21.6303 27.45 22.683 29.5355 22.683C30.767 22.683 31.9389 22.2857 32.8526 21.5905L33.1505 21.809C32.2964 23.9939 30.2506 25.3445 27.7082 25.3445ZM26.139 18.3728H29.5355C29.3766 15.8701 28.7013 15.0756 27.7876 15.0756C26.7746 15.0756 26.1788 16.0489 26.139 18.3728ZM19.495 0C8.72956 0 0 8.72956 0 19.495C0 30.2605 8.72956 38.9901 19.495 38.9901C30.2605 38.9901 38.9901 30.2605 38.9901 19.495C38.9901 8.72956 30.2704 0 19.495 0ZM19.495 37.8083C9.38503 37.8083 1.19175 29.605 1.19175 19.495C1.19175 9.38503 9.38503 1.19175 19.495 1.19175C29.605 1.19175 37.7983 9.38503 37.7983 19.495C37.7983 29.605 29.605 37.8083 19.495 37.8083Z" fill="black"/>
</svg>
